<svg xmlns="http://www.w3.org/2000/svg" width="1200" height="900" viewBox="0 0 1200 900">
  <defs>
    <linearGradient id="bg" x1="0" y1="0" x2="1" y2="1">
      <stop offset="0%" stop-color="#0f172a"/>
      <stop offset="100%" stop-color="#0b1320"/>
    </linearGradient>
  </defs>
  <rect width="1200" height="900" fill="url(#bg)"/>
  <g transform="translate(80,80)">
    <rect x="0" y="0" width="1040" height="640" rx="16" fill="#111827"/>
    <!-- Bar chart -->
    <rect x="120" y="500" width="60" height="120" fill="#60a5fa" />
    <rect x="220" y="440" width="60" height="180" fill="#34d399" />
    <rect x="320" y="380" width="60" height="240" fill="#f59e0b" />
    <rect x="420" y="420" width="60" height="200" fill="#ef4444" />
    <rect x="520" y="460" width="60" height="160" fill="#8b5cf6" />
    <rect x="620" y="520" width="60" height="100" fill="#22c55e" />
    <!-- Network / nodes -->
    <circle cx="820" cy="220" r="28" fill="#38bdf9"/>
    <circle cx="950" cy="180" r="18" fill="#f43f5e"/>
    <circle cx="900" cy="300" r="22" fill="#f59e0b"/>
    <line x1="820" y1="220" x2="950" y2="180" stroke="#94a3b8" stroke-width="2"/>
    <line x1="820" y1="220" x2="900" y2="300" stroke="#94a3b8" stroke-width="2"/>
    <line x1="950" y1="180" x2="900" y2="300" stroke="#94a3b8" stroke-width="2"/>
    <!-- Text bars -->
    <rect x="80" y="520" width="880" height="18" rx="6" fill="#cbd5e1" opacity="0.18"/>
    <rect x="80" y="560" width="760" height="16" rx="6" fill="#cbd5e1" opacity="0.14"/>
    <rect x="80" y="600" width="900" height="16" rx="6" fill="#cbd5e1" opacity="0.12"/>
  </g>
  <text x="80" y="820" fill="#e2e8f0" font-family="Inter, Arial, sans-serif" font-size="34" font-weight="700">AI‑Driven Employee Engagement Analytics</text>
  <text x="80" y="860" fill="#94a3b8" font-family="Inter, Arial, sans-serif" font-size="18">Measuring engagement with predictive signals and organizational insights</text>
</svg>


