<svg xmlns="http://www.w3.org/2000/svg" width="1200" height="900" viewBox="0 0 1200 900">
  <defs>
    <linearGradient id="bg" x1="0" y1="0" x2="1" y2="1">
      <stop offset="0%" stop-color="#0f172a"/>
      <stop offset="100%" stop-color="#111827"/>
    </linearGradient>
  </defs>
  <rect width="1200" height="900" fill="url(#bg)"/>
  <g transform="translate(80,80)">
    <rect x="0" y="0" width="1040" height="640" rx="16" fill="#0b1220"/>
    <!-- word cloud-like blocks -->
    <rect x="60" y="100" width="220" height="50" rx="8" fill="#60a5fa" opacity="0.25"/>
    <rect x="300" y="120" width="160" height="40" rx="8" fill="#34d399" opacity="0.25"/>
    <rect x="500" y="90" width="200" height="60" rx="8" fill="#f59e0b" opacity="0.25"/>
    <rect x="740" y="130" width="180" height="40" rx="8" fill="#f472b6" opacity="0.25"/>
    <rect x="90" y="200" width="280" height="60" rx="8" fill="#a78bfa" opacity="0.25"/>
    <rect x="420" y="210" width="220" height="50" rx="8" fill="#f87171" opacity="0.25"/>
    <rect x="680" y="230" width="300" height="60" rx="8" fill="#22c55e" opacity="0.25"/>
    <!-- code panel -->
    <rect x="60" y="340" width="960" height="260" rx="10" fill="#111827" stroke="#1f2937" stroke-width="1"/>
    <rect x="80" y="360" width="520" height="16" rx="6" fill="#cbd5e1" opacity="0.2"/>
    <rect x="80" y="390" width="680" height="16" rx="6" fill="#cbd5e1" opacity="0.18"/>
    <rect x="80" y="420" width="600" height="16" rx="6" fill="#cbd5e1" opacity="0.16"/>
    <rect x="80" y="450" width="740" height="16" rx="6" fill="#cbd5e1" opacity="0.14"/>
    <rect x="80" y="510" width="280" height="40" rx="10" fill="#3b82f6" opacity="0.7"/>
  </g>
  <text x="80" y="820" fill="#e2e8f0" font-family="Inter, Arial, sans-serif" font-size="34" font-weight="700">Web Scraping & Text Mining</text>
  <text x="80" y="860" fill="#94a3b8" font-family="Inter, Arial, sans-serif" font-size="18">Extracting insights from unstructured text at scale</text>
</svg>


