<svg width="48" height="48" viewBox="0 0 48 48" fill="none" xmlns="http://www.w3.org/2000/svg">
  <defs>
    <linearGradient id="bgGradientPersonal" x1="0%" y1="0%" x2="100%" y2="100%">
      <stop offset="0%" style="stop-color:#3B82F6;stop-opacity:1" />
      <stop offset="100%" style="stop-color:#8B5CF6;stop-opacity:1" />
    </linearGradient>
    <linearGradient id="textGradient" x1="0%" y1="0%" x2="100%" y2="0%">
      <stop offset="0%" style="stop-color:#ffffff;stop-opacity:1" />
      <stop offset="100%" style="stop-color:#E5E7EB;stop-opacity:1" />
    </linearGradient>
    <linearGradient id="accentGradient" x1="0%" y1="0%" x2="100%" y2="0%">
      <stop offset="0%" style="stop-color:#06B6D4;stop-opacity:1" />
      <stop offset="100%" style="stop-color:#10B981;stop-opacity:1" />
    </linearGradient>
  </defs>
  
  <!-- Background -->
  <rect width="48" height="48" rx="12" fill="url(#bgGradientPersonal)"/>
  
  <!-- Modern geometric elements representing data/AI -->
  <g opacity="0.2">
    <rect x="8" y="8" width="2" height="2" rx="1" fill="white" transform="rotate(45 9 9)"/>
    <rect x="38" y="38" width="2" height="2" rx="1" fill="white" transform="rotate(45 39 39)"/>
    <rect x="6" y="38" width="2" height="2" rx="1" fill="white" transform="rotate(45 7 39)"/>
    <rect x="38" y="8" width="2" height="2" rx="1" fill="white" transform="rotate(45 39 9)"/>
  </g>
  
  <!-- Main initials TD -->
  <g>
    <!-- T -->
    <rect x="12" y="14" width="8" height="2.5" rx="1.25" fill="url(#textGradient)"/>
    <rect x="14.75" y="14" width="2.5" height="20" rx="1.25" fill="url(#textGradient)"/>
    
    <!-- D -->
    <path d="M26 14 L26 34 L32 34 C36 34 38 30 38 24 C38 18 36 14 32 14 L26 14 Z" fill="url(#textGradient)"/>
    <path d="M28.5 16.5 L31.5 16.5 C33.5 16.5 35.5 18.5 35.5 24 C35.5 29.5 33.5 31.5 31.5 31.5 L28.5 31.5 Z" fill="url(#bgGradientPersonal)"/>
  </g>
  
  <!-- Subtle tech accent elements -->
  <g>
    <!-- Neural network inspired dots -->
    <circle cx="20" cy="38" r="1" fill="url(#accentGradient)" opacity="0.6"/>
    <circle cx="28" cy="40" r="0.8" fill="url(#accentGradient)" opacity="0.4"/>
    
    <!-- Connecting lines -->
    <line x1="20" y1="38" x2="28" y2="40" stroke="url(#accentGradient)" stroke-width="1" opacity="0.3"/>
  </g>
  
  <!-- PhD indicator (small degree symbol) -->
  <circle cx="36" cy="16" r="1.5" stroke="url(#accentGradient)" stroke-width="1" fill="none" opacity="0.7"/>
</svg>